<?xml version="1.0" encoding="UTF-8" standalone="no"?>
<!-- Created with Inkscape (http://www.inkscape.org/) -->

<svg
   width="210mm"
   height="297mm"
   viewBox="0 0 210 297"
   version="1.1"
   id="svg1"
   xml:space="preserve"
   inkscape:version="1.3 (0e150ed6c4, 2023-07-21)"
   sodipodi:docname="logo.svg"
   xmlns:inkscape="http://www.inkscape.org/namespaces/inkscape"
   xmlns:sodipodi="http://sodipodi.sourceforge.net/DTD/sodipodi-0.dtd"
   xmlns:xlink="http://www.w3.org/1999/xlink"
   xmlns="http://www.w3.org/2000/svg"
   xmlns:svg="http://www.w3.org/2000/svg"><sodipodi:namedview
     id="namedview1"
     pagecolor="#505050"
     bordercolor="#ffffff"
     borderopacity="1"
     inkscape:showpageshadow="0"
     inkscape:pageopacity="0"
     inkscape:pagecheckerboard="1"
     inkscape:deskcolor="#505050"
     inkscape:document-units="mm"
     inkscape:zoom="2.1754629"
     inkscape:cx="480.8172"
     inkscape:cy="734.78613"
     inkscape:window-width="2560"
     inkscape:window-height="1417"
     inkscape:window-x="1912"
     inkscape:window-y="-8"
     inkscape:window-maximized="1"
     inkscape:current-layer="layer1" /><defs
     id="defs1"><pattern
       inkscape:collect="always"
       xlink:href="#WireFence"
       preserveAspectRatio="xMidYMid"
       id="pattern44"
       patternTransform="scale(0.1)"
       x="0"
       y="0" /><pattern
       patternUnits="userSpaceOnUse"
       width="52"
       height="61.14"
       id="WireFence"
       patternTransform="scale(0.3,0.3)"
       preserveAspectRatio="xMidYMid"
       style="fill:#580329"
       inkscape:label="Wire Fence"
       inkscape:collect="always"
       inkscape:isstock="true"><path
         id="rect9"
         style="stroke:none"
         d="m 31.437499,0 7.257813,7.2578126 c -0.879538,1.3312883 -0.879117,3.0161644 10e-7,4.3476564 L 26.072266,24.228516 14,36.300782 0,22.302735 v 2.828124 l 12.640625,12.640625 c -0.89873,1.34129 -0.898729,3.115742 0,4.457031 L 0,54.86914 v 2.828126 l 14,-14 17.443359,17.443359 2.828125,10e-7 -18.912109,-18.91211 c 0.898055,-1.340861 0.898042,-3.116186 0,-4.457031 L 27.488281,25.642578 40,13.128906 l 12.000001,12 L 52,22.300781 41.302734,11.605469 c 0.879644,-1.331587 0.879713,-3.0161029 0,-4.3476564 L 48.560547,0 H 45.732422 L 40,5.732422 34.267578,0 Z M 52,54.869141 l -6.271484,6.271484 2.828124,0 L 52,57.697265 Z" /></pattern><clipPath
       clipPathUnits="userSpaceOnUse"
       id="clipPath52"><path
         id="path52"
         style="stroke-width:0.1;stroke-linecap:square;paint-order:markers fill stroke;stop-color:#000000"
         d="m -880.82767,-187.29769 h 1640.84 v 73.28155 h -1640.84 z" /></clipPath><linearGradient
       id="linearGradient30"
       inkscape:collect="always"><stop
         style="stop-color:#790437;stop-opacity:1;"
         offset="0"
         id="stop30" /><stop
         style="stop-color:#c10469;stop-opacity:1;"
         offset="1"
         id="stop31" /></linearGradient><pattern
       inkscape:collect="always"
       xlink:href="#Hexagons"
       preserveAspectRatio="xMidYMid"
       id="pattern30"
       patternTransform="matrix(0.21,0,0,0.21,1,1)"
       x="0"
       y="0" /><pattern
       patternUnits="userSpaceOnUse"
       width="100"
       height="87"
       preserveAspectRatio="xMidYMid"
       patternTransform="translate(1,1) scale(0.5,0.5)"
       style="fill:#0c4677"
       id="Hexagons"
       inkscape:label="Hexagons packing grid"
       inkscape:collect="always"
       inkscape:isstock="true"><path
         id="path27"
         style="stroke:none"
         d="M 23.246093,0 0,13.382812 V 44.689453 L 0.0839844,44.640625 24.033203,58.505859 24.001953,86.332031 22.841796,87 h 4.478516 L 26.068359,86.275391 26.099609,58.449219 50.083984,44.640625 74.033203,58.505859 74.001953,86.332031 72.841796,87 h 4.478516 L 76.068359,86.275391 76.099609,58.449219 100,44.689453 V 13.365234 L 76.919921,0 H 73.246093 L 50.015625,13.373047 26.919921,0 Z M 25.083984,1.25 49.033203,15.115234 49.001953,42.941406 25.017578,56.75 1.0019531,42.845703 l 0.033203,-27.75 z m 50,0 24.017576,13.904297 -0.0352,27.75 L 75.017578,56.75 51.068359,42.884766 51.099609,15.058594 Z" /></pattern><clipPath
       clipPathUnits="userSpaceOnUse"
       id="clipPath54"><path
         id="path54"
         style="stroke-width:0.0999999;stroke-linecap:square;paint-order:markers fill stroke;stop-color:#000000"
         d="m 1691.1994,-792.32001 h 1634.8919 v 92.82806 H 1691.1994 Z" /></clipPath><clipPath
       clipPathUnits="userSpaceOnUse"
       id="clipPath27"><rect
         style="fill:#ff0000;stroke:none;stroke-width:3;stroke-linecap:square;stroke-linejoin:miter;paint-order:stroke markers fill;stop-color:#000000"
         id="rect27"
         width="78"
         height="45.033199"
         x="763.61322"
         y="452.82422" /></clipPath><linearGradient
       id="linearGradient22"
       inkscape:collect="always"><stop
         style="stop-color:#2bf5f8;stop-opacity:1;"
         offset="0"
         id="stop22" /><stop
         style="stop-color:#053a66;stop-opacity:1;"
         offset="1"
         id="stop23" /></linearGradient><clipPath
       clipPathUnits="userSpaceOnUse"
       id="clipPath25"><rect
         style="fill:#ff0000;stroke:none;stroke-width:3;stroke-linecap:square;stroke-linejoin:miter;paint-order:stroke markers fill;stop-color:#000000"
         id="rect25-8"
         width="78"
         height="45.033199"
         x="763.61322"
         y="452.82422" /></clipPath><linearGradient
       id="linearGradient17"
       inkscape:collect="always"><stop
         style="stop-color:#633f10;stop-opacity:1;"
         offset="0"
         id="stop16" /><stop
         style="stop-color:#ead193;stop-opacity:1;"
         offset="1"
         id="stop17" /></linearGradient><linearGradient
       id="linearGradient14"
       inkscape:collect="always"><stop
         style="stop-color:#e9c281;stop-opacity:1;"
         offset="0"
         id="stop13" /><stop
         style="stop-color:#d5d5d5;stop-opacity:1;"
         offset="1"
         id="stop14" /></linearGradient><linearGradient
       id="linearGradient12"
       inkscape:collect="always"><stop
         style="stop-color:#ebc892;stop-opacity:1;"
         offset="0"
         id="stop11" /><stop
         style="stop-color:#e9ca6c;stop-opacity:1;"
         offset="1"
         id="stop12" /></linearGradient><linearGradient
       id="linearGradient10"
       inkscape:collect="always"><stop
         style="stop-color:#eac96d;stop-opacity:1;"
         offset="0"
         id="stop9" /><stop
         style="stop-color:#e2ab59;stop-opacity:1;"
         offset="1"
         id="stop10" /></linearGradient><linearGradient
       id="linearGradient7"
       inkscape:collect="always"><stop
         style="stop-color:#291007;stop-opacity:1;"
         offset="0"
         id="stop7" /><stop
         style="stop-color:#070527;stop-opacity:1;"
         offset="1"
         id="stop8" /></linearGradient><linearGradient
       id="linearGradient2"
       inkscape:collect="always"><stop
         style="stop-color:#843214;stop-opacity:1;"
         offset="0"
         id="stop2" /><stop
         style="stop-color:#b8590f;stop-opacity:1;"
         offset="0.5"
         id="stop4" /><stop
         style="stop-color:#f78c4b;stop-opacity:1;"
         offset="1"
         id="stop3" /></linearGradient><radialGradient
       inkscape:collect="always"
       xlink:href="#linearGradient2"
       id="radialGradient3"
       cx="105"
       cy="154.45944"
       fx="105"
       fy="154.45944"
       r="49.905407"
       gradientUnits="userSpaceOnUse"
       gradientTransform="matrix(0.40536159,-0.0852965,0.20591159,0.9785706,30.632043,12.266106)" /><linearGradient
       inkscape:collect="always"
       xlink:href="#linearGradient7"
       id="linearGradient8"
       x1="75.040543"
       y1="120.89189"
       x2="127.70271"
       y2="185.47298"
       gradientUnits="userSpaceOnUse" /><radialGradient
       inkscape:collect="always"
       xlink:href="#linearGradient2"
       id="radialGradient3-5"
       cx="105"
       cy="154.45944"
       fx="105"
       fy="154.45944"
       r="49.905407"
       gradientUnits="userSpaceOnUse"
       gradientTransform="matrix(0.38983488,-0.08202936,0.19802448,0.94108806,33.480587,17.712591)" /><linearGradient
       inkscape:collect="always"
       xlink:href="#linearGradient10"
       id="linearGradient9"
       gradientUnits="userSpaceOnUse"
       x1="75.040543"
       y1="120.89189"
       x2="127.70271"
       y2="185.47298"
       gradientTransform="matrix(0.96169664,0,0,0.96169664,4.0218533,5.9163182)" /><radialGradient
       inkscape:collect="always"
       xlink:href="#linearGradient2"
       id="radialGradient3-5-5"
       cx="105"
       cy="154.45944"
       fx="105"
       fy="154.45944"
       r="49.905407"
       gradientUnits="userSpaceOnUse"
       gradientTransform="matrix(0.35724298,-0.07517135,0.18146876,0.86240899,39.459914,29.145226)" /><linearGradient
       inkscape:collect="always"
       xlink:href="#linearGradient12"
       id="linearGradient11"
       gradientUnits="userSpaceOnUse"
       gradientTransform="matrix(0.88129461,0,0,0.88129461,12.464063,18.335172)"
       x1="75.040543"
       y1="120.89189"
       x2="127.70271"
       y2="185.47298" /><radialGradient
       inkscape:collect="always"
       xlink:href="#linearGradient2"
       id="radialGradient3-5-5-2"
       cx="105"
       cy="154.45944"
       fx="105"
       fy="154.45944"
       r="49.905407"
       gradientUnits="userSpaceOnUse"
       gradientTransform="matrix(0.34917824,-0.07347436,0.17737211,0.84294016,40.939469,31.974185)" /><linearGradient
       inkscape:collect="always"
       xlink:href="#linearGradient14"
       id="linearGradient13"
       gradientUnits="userSpaceOnUse"
       gradientTransform="matrix(0.86139944,0,0,0.86139944,14.553052,21.408167)"
       x1="75.040543"
       y1="120.89189"
       x2="127.70271"
       y2="185.47298" /><radialGradient
       inkscape:collect="always"
       xlink:href="#linearGradient2"
       id="radialGradient3-5-5-2-8"
       cx="105"
       cy="154.45944"
       fx="105"
       fy="154.45944"
       r="49.905407"
       gradientUnits="userSpaceOnUse"
       gradientTransform="matrix(0.3822302,-0.08042918,0.19416152,0.92272984,34.875727,20.380174)" /><linearGradient
       inkscape:collect="always"
       xlink:href="#linearGradient17"
       id="linearGradient15"
       gradientUnits="userSpaceOnUse"
       gradientTransform="matrix(0.94293641,0,0,0.94293641,5.9916652,8.814015)"
       x1="75.040543"
       y1="120.89189"
       x2="127.70271"
       y2="185.47298" /><linearGradient
       inkscape:collect="always"
       xlink:href="#linearGradient22"
       id="linearGradient23"
       x1="-103.14222"
       y1="-155.52533"
       x2="-19.749446"
       y2="-155.52533"
       gradientUnits="userSpaceOnUse" /><linearGradient
       inkscape:collect="always"
       xlink:href="#linearGradient30"
       id="linearGradient31"
       x1="19.749446"
       y1="197.22171"
       x2="103.14222"
       y2="197.22171"
       gradientUnits="userSpaceOnUse" /></defs><g
     inkscape:label="Layer 1"
     inkscape:groupmode="layer"
     id="layer1"><circle
       style="fill:url(#linearGradient8);fill-opacity:1;stroke:url(#radialGradient3);stroke-width:0;stroke-opacity:0.33043501;stroke-dasharray:none"
       id="path1"
       cx="105"
       cy="154.45944"
       r="48.405407"
       inkscape:export-filename="..\logo.png"
       inkscape:export-xdpi="192"
       inkscape:export-ydpi="192" /><circle
       style="fill:url(#linearGradient9);fill-opacity:1;stroke:url(#radialGradient3-5);stroke-width:0;stroke-dasharray:none;stroke-opacity:0.330435"
       id="path1-9"
       cx="105"
       cy="154.45944"
       r="46.551315" /><circle
       style="fill:url(#linearGradient15);fill-opacity:1;stroke:url(#radialGradient3-5-5-2-8);stroke-width:0;stroke-dasharray:none;stroke-opacity:0.330435"
       id="path1-9-2-9-0"
       cx="105"
       cy="154.45944"
       r="45.643219" /><circle
       style="fill:url(#linearGradient11);fill-opacity:1;stroke:url(#radialGradient3-5-5);stroke-width:0;stroke-dasharray:none;stroke-opacity:0.330435"
       id="path1-9-2"
       cx="105"
       cy="154.45944"
       r="42.659424" /><circle
       style="fill:url(#linearGradient13);fill-opacity:1;stroke:url(#radialGradient3-5-5-2);stroke-width:0;stroke-dasharray:none;stroke-opacity:0.330435"
       id="path1-9-2-9"
       cx="105"
       cy="154.45944"
       r="41.696388" /><path
       style="fill:url(#linearGradient23);fill-opacity:1;stroke:#0914de;stroke-width:0;stroke-dasharray:none;stroke-opacity:0.330435"
       id="path17"
       sodipodi:type="arc"
       sodipodi:cx="-61.445835"
       sodipodi:cy="-176.37352"
       sodipodi:rx="41.696388"
       sodipodi:ry="41.696388"
       sodipodi:start="0"
       sodipodi:end="3.1415927"
       sodipodi:arc-type="slice"
       d="m -19.749447,-176.37352 a 41.696388,41.696388 0 0 1 -20.848195,36.11013 41.696388,41.696388 0 0 1 -41.696388,0 41.696388,41.696388 0 0 1 -20.84819,-36.11013 h 41.696385 z"
       transform="rotate(165)" /><path
       style="fill:url(#pattern30);fill-opacity:1;stroke:#0914de;stroke-width:0;stroke-dasharray:none;stroke-opacity:0.330435"
       id="path17-5"
       sodipodi:type="arc"
       sodipodi:cx="-61.445835"
       sodipodi:cy="-176.37352"
       sodipodi:rx="41.696388"
       sodipodi:ry="41.696388"
       sodipodi:start="0"
       sodipodi:end="3.1415927"
       sodipodi:arc-type="slice"
       d="m -19.749447,-176.37352 a 41.696388,41.696388 0 0 1 -20.848195,36.11013 41.696388,41.696388 0 0 1 -41.696388,0 41.696388,41.696388 0 0 1 -20.84819,-36.11013 h 41.696385 z"
       transform="rotate(165)" /><path
       style="fill:url(#linearGradient31);fill-opacity:1;stroke:#0914de;stroke-width:0;stroke-dasharray:none;stroke-opacity:0.330435"
       id="path17-2"
       sodipodi:type="arc"
       sodipodi:cx="61.445835"
       sodipodi:cy="176.37352"
       sodipodi:rx="41.696388"
       sodipodi:ry="41.696388"
       sodipodi:start="0"
       sodipodi:end="3.1415927"
       sodipodi:arc-type="slice"
       d="m 103.14222,176.37352 a 41.696388,41.696388 0 0 1 -20.848191,36.11013 41.696388,41.696388 0 0 1 -41.696389,0 41.696388,41.696388 0 0 1 -20.848193,-36.11013 h 41.696388 z"
       transform="rotate(-15)" /><path
       style="fill:url(#pattern44);fill-opacity:1;stroke:#0914de;stroke-width:0;stroke-dasharray:none;stroke-opacity:0.330435"
       id="path17-2-5"
       sodipodi:type="arc"
       sodipodi:cx="61.445835"
       sodipodi:cy="176.37352"
       sodipodi:rx="41.696388"
       sodipodi:ry="41.696388"
       sodipodi:start="0"
       sodipodi:end="3.1415927"
       sodipodi:arc-type="slice"
       d="m 103.14222,176.37352 a 41.696388,41.696388 0 0 1 -20.848191,36.11013 41.696388,41.696388 0 0 1 -41.696389,0 41.696388,41.696388 0 0 1 -20.848193,-36.11013 h 41.696388 z"
       transform="rotate(-15)" /><path
       id="text25-8"
       style="font-style:italic;font-weight:800;font-size:25.4152px;font-family:'Exo 2';-inkscape-font-specification:'Exo 2 Ultra-Bold Italic';fill:#026f8a;fill-opacity:1;stroke:#d6d6d6;stroke-width:0"
       d="m 162.64035,128.52376 c -2.81085,0.077 -5.95443,0.89728 -7.59379,3.42383 -0.36052,0.56007 -0.62998,1.26963 -0.82795,1.84871 -0.84971,-1.50652 -2.50388,-2.43581 -4.2073,-2.38592 -2.20861,-0.0253 -4.33665,0.71639 -6.44699,1.28802 -0.79898,0.25921 -1.57148,0.5918 -2.35178,0.90277 -0.0286,0.36639 -0.84736,0.0958 -1.20601,0.24848 -2.41294,0.21027 -4.82843,0.6458 -7.13571,1.3828 -1.94118,0.91343 -2.90022,3.11447 -3.13492,5.17413 -0.68484,-1.71902 -2.15042,-3.15982 -3.99944,-3.43187 -2.23691,-0.39548 -4.44207,0.42818 -6.57569,1.0047 -1.29498,0.44183 -2.48034,0.78505 -3.80869,1.02293 -1.68014,0.36332 -3.35999,0.72802 -5.04032,1.09042 -0.0196,2.36771 -0.0367,4.73543 -0.0553,7.10314 -0.66074,-1.71943 -1.20577,-3.5092 -2.06222,-5.13579 -0.69356,-0.99199 -2.04483,-1.25122 -3.12694,-0.84615 -0.92017,0.15169 -1.8811,0.48055 -2.51133,1.21634 -0.8454,-0.24492 -1.75387,0.0266 -2.623924,0.041 -2.20798,0.23691 -4.41332,0.65998 -6.53136,1.32569 -0.51849,0.22484 -0.98481,0.59682 -1.3709,0.993 -0.0725,-0.77447 -0.63201,-0.66326 -1.1982,-0.46595 -4.56703,0.99053 -9.13354,1.98347 -13.70089,2.97247 0.0182,0.35339 -0.88149,0.19243 -1.217,0.33257 -2.03061,0.29066 -4.08121,0.62232 -6.02803,1.27859 -1.6254,0.75579 -2.58982,2.47289 -2.96499,4.19044 -0.74332,-1.56359 -2.32135,-2.63785 -4.035,-2.68153 -2.32388,-0.1318 -4.56651,0.68243 -6.78329,1.27182 -0.78493,0.2538 -1.54315,0.58147 -2.31028,0.88467 -0.004,0.73559 -0.008,1.47118 -0.0118,2.20678 -1.1314,-1.60594 -3.24712,-1.89052 -5.03809,-1.61814 -2.51298,0.43823 -5.00867,1.08004 -7.3574,2.10697 -0.0517,8.87942 -0.10418,17.75884 -0.1561,26.63826 2.30667,-0.49882 4.61292,-0.99961 6.91997,-1.49666 0.0168,-2.74859 0.0148,-5.49739 0.0573,-8.24575 2.04954,-0.22248 4.22096,-0.97363 5.48737,-2.72579 -0.0191,3.2582 -0.0382,6.51641 -0.0573,9.77461 2.27993,-0.49418 4.55968,-0.98931 6.83895,-1.48661 0.0128,-2.4341 0.024,-4.86822 0.0415,-7.30229 0.34547,2.35656 0.6929,4.71283 1.04136,7.06894 2.33287,-0.5069 4.66621,-1.01154 6.99901,-1.5188 -0.099,-0.58378 -0.22385,-1.24053 -0.30826,-1.7783 1.09419,1.31199 2.95037,1.45147 4.47632,0.98387 2.34432,-0.61475 4.7609,-1.03566 6.96475,-2.10436 -0.16334,-2.5265 -0.32315,-5.05323 -0.48412,-7.57989 -1.90454,0.38961 -3.79629,0.83914 -5.70275,1.21906 -0.006,-0.5897 0.0377,-1.17865 0.0396,-1.76824 1.73135,-0.31191 3.4344,-0.76793 5.16132,-1.10641 -0.004,-2.55413 -0.0101,-5.10825 -0.0158,-7.66238 -1.70834,0.37199 -3.41721,0.74149 -5.12576,1.11245 0.0211,-0.43646 -0.18764,-1.16333 0.44937,-1.13972 2.40748,-0.53169 4.76593,-1.01333 7.17801,-1.52773 -0.0362,6.21063 -0.0724,12.42127 -0.10868,18.6319 2.30696,-0.50011 4.61367,-1.00145 6.91998,-1.50471 0.035,-6.20863 0.0726,-12.41725 0.10868,-18.62587 0.67842,-0.14752 1.35685,-0.29504 2.03528,-0.44256 -0.001,4.08581 -0.129,8.17736 0.0233,12.25979 0.1784,2.0684 1.05685,4.44501 3.1364,5.19529 1.89582,0.57325 3.76246,-0.41005 5.61331,-0.71928 1.03822,-0.22041 2.095084,-0.61061 3.077174,-0.89205 0.74119,0.28998 1.46592,-0.2682 2.21373,-0.29101 1.35669,-0.29375 2.71303,-0.58919 4.06996,-0.88178 0.0191,-2.35094 0.0354,-4.7019 0.0533,-7.05285 0.63153,1.68866 1.17394,3.42762 1.9681,5.04321 0.6901,1.03668 2.08028,1.29667 3.18944,0.89448 0.89449,-0.15517 1.83095,-0.45604 2.45996,-1.158 -0.2024,0.82382 0.87126,0.17601 1.30877,0.2599 3.2185,-0.45576 6.611,-0.60845 9.54542,-2.16695 1.65357,-1.03373 2.75145,-2.8011 3.28611,-4.67105 0.53094,1.71793 2.01256,3.34629 3.90338,3.24328 1.64946,-0.0561 3.21056,-0.69681 4.82266,-1.00029 0.89305,-0.19793 1.81355,-0.56249 2.65575,-0.79058 0.74139,0.29042 1.46587,-0.26822 2.21375,-0.29091 1.41796,-0.30643 2.83541,-0.61531 4.25372,-0.9201 0.0134,-2.43344 0.0253,-4.8669 0.0474,-7.30028 0.34542,2.35359 0.68844,4.70754 1.03543,7.06089 2.36383,-0.51359 4.72811,-1.02501 7.09187,-1.53891 -0.4423,-0.66741 0.36575,-0.30441 0.75916,-0.33473 2.78052,0.18794 5.79222,-0.23848 8.04396,-2.02695 1.92897,-1.72231 2.29915,-4.48451 2.34385,-6.95134 0.0576,-2.34532 -0.13477,-4.91887 -1.58705,-6.84657 -1.29721,-1.61709 -3.34994,-2.23072 -5.02893,-3.27496 -0.25773,-0.55259 0.50701,-0.37019 0.7861,-0.5136 1.79829,-0.3863 3.60965,-0.70441 5.41658,-1.04543 6.3e-4,-2.23897 0.003,-4.47793 0.004,-6.7169 -1.35581,-0.46185 -2.77326,-0.78314 -4.21087,-0.73023 z m -14.26084,11.13046 c 0.022,0.73291 0.0471,1.52439 -0.24502,2.19874 -0.23195,-0.23112 -0.0194,-1.19728 -0.0866,-1.70062 -0.12355,-0.3199 0.13765,-1.08707 0.33163,-0.49812 z m -7.17883,2.94908 c -1.55099,0.3381 -3.10235,0.67444 -4.65349,1.01186 0.0477,-0.38506 -0.20414,-1.10089 0.3551,-1.11501 1.42708,-0.35426 2.88594,-0.58002 4.30629,-0.95095 -0.003,0.35137 -0.005,0.70273 -0.008,1.0541 z m 13.77672,0.81874 c 0.95628,1.6129 2.6103,2.55902 4.25521,3.29189 0.38383,0.23101 0.95549,0.38173 1.15114,0.78171 0.003,0.53725 -0.69655,0.32271 -1.01962,0.51699 -1.55632,0.3376 -3.13796,0.53048 -4.70092,0.83081 -0.19429,-1.16529 -0.39481,-2.38432 -1.07099,-3.37555 0.57879,-0.65816 0.96744,-1.46805 1.23303,-2.30334 0.0507,0.0858 0.10143,0.17166 0.15215,0.25749 z m -31.38885,1.77629 c 0.28186,2.31313 0.25582,4.66683 0.18728,6.997 -0.11049,1.27969 -0.0999,2.62301 -0.5568,3.83171 -0.38602,0.67539 -0.27304,0.0172 -0.2989,-0.3919 0.008,-3.5205 0.0418,-7.04247 0.0598,-10.56354 0.2329,-0.006 0.61006,-0.29974 0.60862,0.12673 z m -21.86253,4.97481 c 0.13276,0.74742 -0.0493,1.23223 -0.86846,1.19056 -1.262344,0.27437 -2.524674,0.54874 -3.787014,0.8231 0.0188,-0.44789 -0.18876,-1.18328 0.47913,-1.14323 1.3854,-0.34128 2.797794,-0.56034 4.176344,-0.93078 z m 39.41933,1.86681 c -1.555,0.32081 -3.0999,0.69114 -4.65744,0.99979 -0.006,-0.59036 0.0377,-1.17998 0.0396,-1.77025 1.55466,-0.27235 3.08021,-0.68798 4.62978,-0.98973 -0.004,0.58673 -0.008,1.17346 -0.0118,1.76019 z m -80.229784,6.60425 c 0.0171,0.73246 0.0493,1.53833 -0.25096,2.20477 -0.21921,-0.24668 -0.0166,-1.19716 -0.0806,-1.70263 -0.12194,-0.3177 0.13464,-1.08919 0.33164,-0.50214 z m 40.751174,1.96941 c -1.55415,0.32143 -3.098464,0.69016 -4.655474,0.99777 -0.006,-0.59036 0.0378,-1.17998 0.0396,-1.77025 1.55313,-0.27331 3.079054,-0.68495 4.625824,-0.99375 -0.003,0.58874 -0.007,1.17748 -0.0101,1.76623 z m -53.283004,0.91731 c 0.0215,0.8928 0.0115,1.80044 -0.14227,2.6775 0.007,-1.00113 0.0132,-2.00226 0.0197,-3.00339 0.18669,-0.14328 0.0715,0.24957 0.12251,0.32589 z m 18.20297,3.64511 c 0.0503,0.24172 -0.46574,-0.65139 -0.40508,-0.7765 0.43436,-0.75346 0.46921,-0.4654 0.4105,0.24457 -0.002,0.17731 -0.004,0.35462 -0.005,0.53193 z" /><path
       id="text25-8-3"
       style="font-style:italic;font-weight:800;font-size:25.4152px;font-family:'Exo 2';-inkscape-font-specification:'Exo 2 Ultra-Bold Italic';fill:#00031c;fill-opacity:1;stroke:#d6d6d6;stroke-width:0"
       d="m 161.46617,130.43269 c -2.46667,0.12924 -5.25862,1.02541 -6.45117,3.375 -0.38435,1.20792 -2.16159,1.47332 -2.88672,0.44532 -1.55604,-1.47204 -3.9512,-1.08766 -5.78072,-0.60215 -1.74703,0.39162 -3.53932,0.88366 -5.16069,1.70957 -1.38811,0.39921 -2.86563,0.20161 -4.26245,0.57969 -1.65625,0.31082 -3.46126,0.49499 -4.8554,1.51412 -1.08727,1.01912 -1.4164,2.53955 -1.85676,3.90423 -0.87055,0.38917 -1.81822,-0.12381 -2.23649,-0.91955 -1.09525,-1.86259 -3.5878,-2.25579 -5.51635,-1.69578 -2.94111,0.62285 -5.7674,1.71666 -8.74588,2.17691 -0.81358,0.17479 -1.62715,0.34957 -2.44073,0.52436 -0.004,2.17717 -0.005,4.39518 -0.48828,6.52149 -0.29611,0.63699 -1.08944,0.23793 -1.24925,-0.30472 -0.66411,-1.11175 -1.28306,-2.24912 -1.75466,-3.46091 -0.34327,-0.72903 -0.74581,-1.69609 -1.72265,-1.61914 -1.16312,-0.0144 -2.18878,0.58242 -3.1403,1.17518 -0.76967,0.4049 -1.61985,-0.0239 -2.43392,0.16271 -1.607374,0.19478 -3.410224,0.41287 -5.051954,0.83182 -1.03986,0.27442 -2.04574,0.6672 -3.01251,1.13693 -0.5636,-0.72508 -1.37218,0.098 -2.08203,0.0273 -4.02606,0.87889 -8.08827,1.67489 -12.09179,2.60547 -0.84588,0.4829 -1.86853,0.33906 -2.78627,0.59196 -2.0227,0.34196 -4.32728,0.42934 -5.91143,1.89453 -0.96468,1.20556 -1.31993,2.66379 -1.96246,4.05257 -1.04052,-1.45493 -2.23573,-3.27484 -4.21484,-3.37695 -2.55375,-0.0895 -4.97558,0.77278 -7.36699,1.52556 -0.55442,0.0255 -0.5984,0.42369 -0.72286,0.85334 -0.37347,0.97912 -1.715,1.4532 -2.53906,0.71875 -2.11329,-1.08221 -4.5086,-0.21071 -6.6523,0.30457 -0.99576,0.27405 -1.98276,0.58378 -2.94536,0.95911 -0.0475,7.94401 -0.0951,15.88802 -0.14257,23.83203 1.57487,-0.33399 3.14974,-0.66797 4.72461,-1.00196 0.0191,-2.68684 0.0364,-5.3737 0.0566,-8.06054 2.11122,-0.14887 4.26761,-0.81104 5.80078,-2.32617 0.94957,-0.57849 2.02029,0.57036 1.73047,1.53125 -0.0224,2.41272 -0.041,4.82546 -0.0488,7.23828 1.62304,-0.34701 3.24609,-0.69401 4.86914,-1.04102 0.0944,-0.79406 0.83863,-1.65669 1.69531,-1.26562 0.53849,0.0139 0.49209,0.93723 0.98409,0.70953 1.69044,-0.41247 3.47044,-0.66778 5.10771,-1.15875 0.37291,-1.06154 1.80212,-1.45869 2.69762,-0.81009 1.69478,0.41522 3.32573,-0.48752 4.97536,-0.74851 1.09797,-0.29348 2.21077,-0.56237 3.2528,-1.02539 -0.16284,-1.79066 -0.21147,-3.58756 -0.35156,-5.38086 -1.75328,0.36971 -3.50639,0.74016 -5.25977,1.10938 -0.50844,-1.17212 -0.83518,-2.85408 0.32031,-3.76172 0.91242,-0.5551 2.0566,-0.51908 3.06679,-0.8207 0.47588,-0.22308 1.53643,0.0248 1.2915,-0.77891 -0.005,-2.69726 -0.0132,-5.39453 -0.0165,-8.0918 1.37561,0.0964 2.82529,-0.84079 4.11719,-0.0156 0.84664,0.51726 0.34598,1.6065 0.4701,2.4 -0.0317,4.96432 -0.0634,9.92865 -0.0951,14.89297 1.57291,-0.33593 3.14583,-0.67187 4.71875,-1.00781 0.0358,-5.94661 0.0716,-11.89323 0.10742,-17.83984 1.09911,-0.64712 2.78463,-1.12018 3.73828,0.0254 0.74227,1.16008 0.25246,2.60127 0.36839,3.89257 0.031,3.32931 -0.27332,6.7425 0.42849,9.98633 0.47667,1.41543 1.9176,2.67677 3.48698,2.26039 2.22478,-0.30215 4.34143,-1.10373 6.517544,-1.60295 1.82553,-0.17461 3.60344,-0.61621 5.39587,-0.98947 -0.0496,-2.67175 0.17935,-5.33812 0.60351,-7.97461 1.30314,1.97033 2.40702,4.06135 3.33594,6.23242 0.74174,1.00883 2.2227,0.58797 3.17328,0.1406 0.74328,-0.45345 1.61615,-0.44366 2.44417,-0.49786 3.34677,-0.55548 7.01154,-0.50468 9.91662,-2.49556 1.57384,-1.34647 2.13261,-3.43894 3.03234,-5.22921 0.86766,1.42657 1.43505,3.32021 3.09375,4.02735 1.62673,0.35736 3.2861,-0.31917 4.84129,-0.67833 1.63608,-0.41744 3.24551,-1.00208 4.94555,-1.089 1.34379,-0.24506 2.67117,-0.56941 4.01003,-0.83814 0.0716,-0.77249 0.73837,-1.65937 1.59766,-1.33399 0.48194,0.0238 0.62594,0.66079 0.89857,0.80525 1.96433,-0.45846 3.99699,-0.76492 5.90221,-1.39509 0.97935,-0.67854 2.18296,-0.0645 3.26516,-0.27729 2.35195,-0.10411 5.03034,-0.85631 6.27781,-3.03326 0.65427,-1.21032 0.8521,-2.53125 0.92578,-3.75976 0.0868,-2.48473 0.15169,-5.35431 -1.70703,-7.26758 -1.44504,-1.3234 -3.3875,-1.87351 -5.04747,-2.86461 -0.80847,-0.41804 -1.61684,-0.83627 -2.42519,-1.25453 2.93392,-0.573 5.86321,-1.17026 8.80469,-1.70313 0.001,-1.62044 0.003,-3.24088 0.004,-4.86132 -1.16383,-0.30865 -2.37118,-0.50923 -3.57812,-0.41407 z m -6.95703,11.92969 c 0.85223,1.16885 1.80003,2.30898 3.10717,2.99207 2.07699,1.17072 4.32601,1.99163 6.48072,3.00793 -3.61817,0.65794 -7.22928,1.35709 -10.86524,1.91016 -0.2996,-1.56854 -0.56709,-3.19511 -1.45703,-4.5586 1.0056,-1.17403 1.53414,-2.64635 2.19922,-4.01953 0.17839,0.22266 0.35677,0.44531 0.53516,0.66797 z m -12.73828,7.46289 c -0.12401,1.06852 0.34228,2.40258 -0.56836,3.22656 -0.85164,0.52429 -1.97433,0.41854 -2.88867,0.7168 -0.93721,0.20959 -1.8786,0.39789 -2.81836,0.5957 -0.48495,-1.15885 -0.84661,-2.78992 0.26367,-3.71875 0.86377,-0.58253 1.99308,-0.52227 2.96875,-0.82812 1.01627,-0.21747 2.03269,-0.43423 3.04883,-0.65235 -0.002,0.22006 -0.004,0.44011 -0.006,0.66016 z m -39.02735,8.31836 c -0.12275,1.06649 0.3527,2.40531 -0.56054,3.22656 -0.82848,0.52636 -1.89692,0.40982 -2.817904,0.70493 -0.958,0.21239 -1.96511,0.42028 -2.94382,0.62515 -0.42589,-1.19223 -0.78092,-2.84883 0.36619,-3.76432 0.85239,-0.54219 1.94635,-0.51617 2.90334,-0.79427 1.022844,-0.20295 2.039754,-0.43351 3.056644,-0.66407 -0.001,0.22201 -0.003,0.44401 -0.004,0.66602 z" /><path
       d="m 49.385716,155.25456 q 1.95589,-0.41714 3.14644,0.0555 1.188,0.44016 1.71185,2.04572 0.54342,1.6014 0.52134,4.61138 -0.008,2.94085 -0.45237,4.6209 -0.44474,1.68005 -1.45244,2.52245 -1.01025,0.80992 -2.73144,1.17701 -0.93883,0.20024 -1.87085,0.23389 -0.93203,0.0337 -1.73224,-0.0268 -0.80277,-0.093 -1.37083,-0.23603 -0.57061,-0.17553 -0.80362,-0.35701 l -0.10207,-2.81838 q 1.27133,-0.27114 2.6209,-0.55897 1.34957,-0.28784 2.60133,-0.55481 0.64544,-0.13766 0.97964,-0.44011 0.35376,-0.30663 0.49577,-1.03043 0.15901,-0.76047 0.1641,-2.21465 0.011,-1.12521 -0.11568,-1.72565 -0.12671,-0.60045 -0.46006,-0.79356 -0.3138,-0.19727 -0.90057,-0.0721 -1.91677,0.40881 -3.26124,0.7616 -1.34701,0.32032 -1.81132,0.4854 l -0.39296,-4.24246 q 0.82828,-0.34178 1.54686,-0.56109 0.73814,-0.22348 1.59873,-0.40702 0.85804,-0.21603 2.07069,-0.47466 z m -1.55876,0.6627 -0.13671,22.8164 -3.65753,0.77991 0.13671,-22.81641 z m 13.8418,-3.28239 q 1.7603,-0.37543 2.98487,0.0239 1.24157,0.36268 1.87003,1.78081 0.64801,1.41397 0.64208,4.12328 -0.0102,1.38922 -0.23639,2.56031 -0.22619,1.17109 -0.79595,2.01916 -0.55019,0.8439 -1.61062,1.26821 l -0.004,0.19906 q 0.35972,0.0224 0.73985,0.30455 0.39968,0.27803 0.73219,0.96669 0.32995,0.65618 0.5077,1.90624 l 1.12258,6.69583 -3.77514,0.80467 -1.00777,-6.75334 q -0.11819,-0.99857 -0.35632,-1.245 -0.21855,-0.25061 -0.70753,-0.14632 -1.44991,0.2762 -2.36918,0.47226 -0.91926,0.19606 -1.54771,0.29706 -0.62843,0.10101 -1.20074,0.15701 l -0.0409,-4.31756 5.12411,-1.09312 q 0.68456,-0.146 1.05788,-0.45679 0.37077,-0.34328 0.51533,-1.03461 0.16412,-0.69551 0.18962,-1.88984 0.002,-0.99111 -0.13946,-1.52243 -0.12161,-0.53549 -0.46942,-0.65946 -0.3308,-0.16062 -0.91757,-0.0355 -2.01456,0.42966 -3.35903,0.78245 -1.32745,0.31615 -1.79177,0.48123 l -0.39296,-4.24246 q 0.82828,-0.34178 1.56642,-0.56526 0.75769,-0.22765 1.61829,-0.4112 0.85804,-0.21603 2.05113,-0.47049 z m -1.65655,0.68356 -0.13671,22.8164 -3.57978,0.76274 0.13671,-22.81641 z m 12.0797,-2.67542 q 1.15398,-0.24612 2.33006,-0.46394 1.17353,-0.25028 2.27649,-0.38644 1.1004,-0.16864 2.01542,-0.16564 l -0.0714,4.40755 -4.85097,1.03402 q -0.52809,0.11263 -0.75684,0.49167 -0.20919,0.37487 -0.22109,1.23605 l -0.0569,10.415 q -0.003,0.72709 0.22366,1.07515 0.22365,0.31558 0.71263,0.21129 l 4.81142,-1.02616 0.28573,4.39744 q -0.90396,0.39094 -1.9967,0.65702 -1.07064,0.29439 -2.20506,0.53634 -1.11231,0.27025 -2.12937,0.48717 -1.62339,0.34623 -2.51121,-1.08264 -0.86826,-1.43304 -0.87169,-4.00826 l 0.0603,-12.3972 q 0.0247,-2.21793 0.76617,-3.66405 0.76109,-1.4503 2.18889,-1.75481 z m -2.60636,9.60472 8.39037,-1.79017 0.0111,4.1918 -8.469,1.8062 z m 17.7331,-12.7318 -0.13671,22.8164 -3.65792,0.77923 0.13671,-22.8164 z m 3.87267,-0.82596 -0.0263,4.72818 -11.40328,2.43141 0.0263,-4.72818 z m 4.23662,-1.00266 q 1.15397,-0.24611 2.33006,-0.46393 1.17353,-0.25029 2.27649,-0.38644 1.100404,-0.16864 2.015424,-0.16565 l -0.0714,4.40755 -4.851104,1.03372 q -0.52809,0.11263 -0.75684,0.49167 -0.20919,0.37487 -0.22109,1.23605 l -0.0569,10.415 q -0.003,0.72709 0.22366,1.07515 0.22365,0.31558 0.71263,0.21129 l 4.811524,-1.02616 0.28577,4.39742 q -0.90396,0.39095 -1.99671,0.65703 -1.070644,0.29439 -2.205064,0.53634 -1.11231,0.27025 -2.12937,0.48717 -1.62339,0.34623 -2.51121,-1.08264 -0.86826,-1.43304 -0.87169,-4.00826 l 0.0603,-12.3972 q 0.0247,-2.21793 0.76617,-3.66405 0.76109,-1.4503 2.18889,-1.75481 z m -2.60636,9.60472 8.390344,-1.79047 0.0111,4.1918 -8.468994,1.8072 z m 22.955304,-13.8456 -0.11887,20.765 q 0.003,1.05607 -0.29082,1.6142 -0.27467,0.55396 -0.90055,0.68745 l -1.44782,0.30848 q -0.58676,0.12515 -0.8793,-0.30783 -0.29509,-0.46547 -0.60124,-1.32487 l -3.29279,-9.00706 q -0.27383,-0.70118 -0.50174,-1.57726 -0.22792,-0.87609 -0.41926,-1.793 l -0.19557,0.041 q 0.0961,0.97025 0.13353,1.95302 0.0544,0.94611 0.0553,1.96971 l -0.0883,11.2804 -3.40328,0.72587 0.11887,-20.765 q -0.003,-1.05607 0.27126,-1.61003 0.29423,-0.55813 0.92012,-0.69162 l 1.44735,-0.30835 q 0.56721,-0.12098 0.8623,0.34449 0.29509,0.46546 0.59868,1.29239 l 3.20094,8.59733 q 0.27894,0.76613 0.54597,1.63388 0.28659,0.86357 0.52981,1.93455 l 0.2151,-0.0456 q -0.12076,-1.03104 -0.1871,-1.87554 -0.0493,-0.88116 -0.0425,-1.8073 l 0.0858,-11.3128 z m 7.56337,-1.94335 q 2.17104,-0.46303 3.56313,0.29687 1.41165,0.75572 2.08263,3.22159 0.69054,2.4617 0.65657,7.09244 -0.0255,3.47306 -0.33841,5.81852 -0.29591,2.30881 -0.98131,3.70994 -0.6684,1.36448 -1.80111,2.13446 -1.13526,0.7375 -2.81733,1.09625 -1.60383,0.34206 -3.01973,0.54496 -1.39634,0.19872 -2.69743,0.34412 l 1.41586,-4.76034 q 0.69221,-0.0486 1.77306,-0.21303 1.09785,-0.20111 2.13447,-0.4222 0.64544,-0.13766 1.11401,-0.50179 0.46601,-0.39662 0.75683,-1.25124 0.29083,-0.85463 0.43283,-2.33801 0.142,-1.48338 0.13943,-3.79458 0.0127,-2.11631 -0.0723,-3.4522 -0.0851,-1.33588 -0.31977,-2.0454 -0.23471,-0.70952 -0.66586,-0.88177 -0.4337,-0.20472 -1.11826,-0.0587 -0.66501,0.14183 -1.33001,0.28367 -0.64545,0.13765 -1.25177,0.26697 -0.60633,0.12932 -1.13442,0.24195 l -1.73738,-3.88968 q 0.73558,-0.25597 1.59107,-0.50447 0.85294,-0.28099 1.76966,-0.50953 0.93627,-0.23272 1.85554,-0.42877 z m -1.55876,0.6627 -0.13671,22.8164 -3.65796,0.77938 0.13671,-22.8164 z m 12.6665,-2.80057 q 1.15398,-0.24612 2.33006,-0.46393 1.17353,-0.25029 2.27649,-0.38644 1.1004,-0.16865 2.01542,-0.16565 l -0.0714,4.40755 -4.85105,1.03382 q -0.52809,0.11263 -0.75684,0.49167 -0.20919,0.37487 -0.22109,1.23605 l -0.0569,10.415 q -0.003,0.72709 0.22366,1.07515 0.22365,0.31558 0.71263,0.21129 l 4.81142,-1.02616 0.28577,4.39742 q -0.90396,0.39095 -1.99671,0.65703 -1.07064,0.29439 -2.20505,0.53634 -1.11231,0.27025 -2.12937,0.48716 -1.62339,0.34624 -2.51121,-1.08264 -0.86826,-1.43304 -0.87169,-4.00826 l 0.0603,-12.3972 q 0.0246,-2.21793 0.76617,-3.66405 0.76109,-1.4503 2.18889,-1.75481 z m -2.60636,9.60472 8.39029,-1.79037 0.0111,4.1918 -8.46899,1.8062 z m 16.3775,-12.773 q 1.7603,-0.37543 2.98487,0.0239 1.24157,0.36268 1.87002,1.78081 0.64801,1.41397 0.64208,4.12328 -0.0102,1.38922 -0.23638,2.56031 -0.2262,1.17109 -0.79595,2.01916 -0.55019,0.84389 -1.61063,1.26821 l -0.004,0.19906 q 0.35972,0.0224 0.73984,0.30455 0.39969,0.27803 0.7322,0.96669 0.32995,0.65618 0.5077,1.90624 l 1.12257,6.69582 -3.77528,0.80461 -1.00777,-6.75333 q -0.11821,-0.99856 -0.35632,-1.245 -0.21855,-0.25061 -0.70753,-0.14632 -1.44991,0.2762 -2.36918,0.47226 -0.91927,0.19606 -1.54771,0.29706 -0.62843,0.10101 -1.20075,0.15701 l -0.0409,-4.31756 5.12441,-1.09312 q 0.68456,-0.146 1.05788,-0.4568 0.37077,-0.34327 0.51533,-1.03461 0.16412,-0.6955 0.18962,-1.88984 0.002,-0.99111 -0.13948,-1.52242 -0.12161,-0.53548 -0.46942,-0.65945 -0.3308,-0.16062 -0.91757,-0.0355 -2.01457,0.42966 -3.35903,0.78245 -1.32745,0.31615 -1.79177,0.48123 l -0.39292,-4.24247 q 0.82827,-0.34178 1.56641,-0.56526 0.75769,-0.22765 1.61829,-0.41119 0.85804,-0.21604 2.05113,-0.4705 z m -1.65655,0.68356 -0.13671,22.8164 -3.57975,0.76267 0.13671,-22.8164 z m 13.8315,-3.41231 q 1.09785,-0.20113 2.32836,-0.23239 1.25007,-0.0354 2.3913,0.31561 l -0.004,3.99692 q -0.60888,0.0968 -1.37167,0.25953 -0.76535,0.1302 -1.56726,0.30123 -0.80447,0.13856 -1.60638,0.30959 -0.41074,0.0876 -0.71858,0.21931 -0.29083,0.095 -0.49322,0.30334 -0.18539,0.17164 -0.27978,0.48899 -0.0944,0.31736 -0.11479,0.81709 0.0136,0.42642 0.0978,0.73871 0.0842,0.31229 0.31975,0.52625 0.25512,0.20979 0.71348,0.47531 l 2.48485,1.25339 q 1.15909,0.57842 1.78073,1.40356 0.6412,0.82097 0.89463,2.02187 0.27298,1.19673 0.28576,2.87828 0.003,2.57522 -0.47363,4.09704 -0.4575,1.51765 -1.54854,2.31177 -1.09104,0.79412 -2.9687,1.19458 -0.80192,0.17103 -2.16934,0.2315 -1.36487,0.093 -2.91939,-0.20299 l 0.0178,-4.33007 q 1.13697,-0.20947 2.04178,-0.33638 0.92182,-0.16359 1.55026,-0.26459 0.62588,-0.13349 0.89971,-0.19189 0.72367,-0.15434 1.12421,-0.37187 0.42009,-0.22169 0.59016,-0.58821 0.18708,-0.40318 0.19983,-1.00034 0.0179,-0.53221 -0.0638,-0.81202 -0.0817,-0.27982 -0.29509,-0.46547 -0.21345,-0.18565 -0.58592,-0.37041 l -2.67363,-1.37825 q -1.14463,-0.64755 -1.79093,-1.53348 -0.62675,-0.8901 -0.87762,-2.05852 -0.25343,-1.2009 -0.2679,-2.65091 -0.009,-1.88061 0.28825,-3.16583 0.31633,-1.28939 0.93031,-2.08084 0.63098,-0.8281 1.58596,-1.329 0.97454,-0.50507 2.26543,-0.78039 z"
       id="text25"
       style="font-style:italic;font-weight:800;font-size:25.4152px;font-family:'Exo 2';-inkscape-font-specification:'Exo 2 Ultra-Bold Italic';fill:#ff8c32;stroke:#d6d6d6;stroke-width:0;fill-opacity:1"
       aria-label="PRETENDERS" /><path
       d="m 50.601526,156.95687 q 1.95589,-0.41714 3.14644,0.0555 1.18799,0.44015 1.71184,2.04572 0.54342,1.6014 0.52134,4.61138 -0.008,2.94085 -0.45237,4.6209 -0.44474,1.68005 -1.45244,2.52245 -1.01026,0.80992 -2.73144,1.17701 -0.93883,0.20023 -1.87086,0.23389 -0.93202,0.0336 -1.73224,-0.0268 -0.80277,-0.093 -1.37083,-0.23603 -0.57061,-0.17553 -0.80362,-0.35701 l -0.10207,-2.81839 q 1.27133,-0.27114 2.62089,-0.55897 1.34957,-0.28784 2.60134,-0.55481 0.64544,-0.13766 0.97965,-0.44011 0.35375,-0.30662 0.49576,-1.03044 0.15901,-0.76046 0.1641,-2.21464 0.011,-1.12521 -0.11568,-1.72566 -0.12671,-0.60044 -0.46006,-0.79355 -0.3138,-0.19727 -0.90057,-0.0721 -1.91677,0.40881 -3.26124,0.7616 -1.34701,0.32032 -1.81132,0.4854 l -0.39296,-4.24246 q 0.82829,-0.34178 1.54686,-0.56109 0.73814,-0.22348 1.59873,-0.40702 0.85804,-0.21603 2.07069,-0.47467 z m -1.55876,0.6627 -0.13672,22.81639 -3.65751,0.78007 0.13671,-22.81639 z m 13.84176,-3.28239 q 1.7603,-0.37543 2.98487,0.0239 1.24157,0.36267 1.87002,1.78081 0.64801,1.41397 0.64208,4.12328 -0.0102,1.38922 -0.23639,2.56031 -0.22619,1.17109 -0.79594,2.01916 -0.5502,0.84389 -1.61063,1.26821 l -0.004,0.19905 q 0.35972,0.0224 0.73985,0.30456 0.39968,0.27803 0.73219,0.96669 0.32995,0.65617 0.5077,1.90624 l 1.12257,6.69583 -3.77487,0.8051 -1.00777,-6.75335 q -0.11819,-0.99856 -0.35632,-1.245 -0.21855,-0.25061 -0.70753,-0.14632 -1.4499,0.2762 -2.36918,0.47226 -0.91926,0.19606 -1.5477,0.29706 -0.62843,0.10101 -1.20074,0.15701 l -0.0409,-4.31756 5.12444,-1.09292 q 0.68456,-0.14601 1.05788,-0.4568 0.37077,-0.34328 0.51532,-1.03461 0.16413,-0.6955 0.18963,-1.88984 0.002,-0.99111 -0.13947,-1.52243 -0.12161,-0.53548 -0.46942,-0.65945 -0.3308,-0.16063 -0.91757,-0.0355 -2.01456,0.42966 -3.35903,0.78245 -1.32745,0.31615 -1.79176,0.48123 l -0.39296,-4.24246 q 0.82828,-0.34178 1.56642,-0.56526 0.75769,-0.22765 1.61828,-0.41119 0.85804,-0.21604 2.05113,-0.47049 z m -1.65654,0.68356 -0.13672,22.81639 -3.57928,0.76338 0.13671,-22.81639 z m 12.07974,-2.67542 q 1.15398,-0.24612 2.33006,-0.46393 1.17353,-0.25029 2.27649,-0.38645 1.1004,-0.16864 2.01542,-0.16564 l -0.0714,4.40755 -4.85061,1.03452 q -0.52809,0.11263 -0.75685,0.49167 -0.20919,0.37486 -0.22108,1.23605 l -0.0569,10.415 q -0.002,0.72708 0.22366,1.07514 0.22365,0.31558 0.71263,0.21129 l 4.81149,-1.02618 0.28573,4.39744 q -0.90396,0.39094 -1.99671,0.65702 -1.07064,0.2944 -2.20505,0.53634 -1.11231,0.27025 -2.12938,0.48717 -1.62338,0.34623 -2.5112,-1.08264 -0.86826,-1.43304 -0.87169,-4.00827 l 0.0603,-12.39722 q 0.0247,-2.21792 0.76617,-3.66405 0.76109,-1.45029 2.18889,-1.75481 z m -2.60636,9.60472 8.39077,-1.78957 0.0111,4.19181 -8.46901,1.80625 z m 17.73305,-12.73183 -0.13671,22.81639 -3.65752,0.78007 0.13671,-22.81639 z m 3.87267,-0.82595 -0.0263,4.72818 -11.40285,2.43197 0.0263,-4.72818 z m 4.23662,-1.00266 q 1.15397,-0.24612 2.33006,-0.46393 1.173544,-0.25029 2.276494,-0.38645 1.1004,-0.16864 2.01542,-0.16564 l -0.0714,4.40755 -4.850614,1.03452 q -0.52809,0.11263 -0.75684,0.49167 -0.20919,0.37486 -0.22109,1.23605 l -0.0569,10.415 q -0.003,0.72708 0.22366,1.07514 0.22366,0.31558 0.71263,0.21129 l 4.811494,-1.02618 0.28577,4.39742 q -0.90396,0.39094 -1.99671,0.65703 -1.07064,0.29439 -2.205054,0.53633 -1.11231,0.27025 -2.12938,0.48717 -1.62339,0.34623 -2.5112,-1.08264 -0.86826,-1.43304 -0.87169,-4.00826 l 0.0603,-12.39721 q 0.0247,-2.21793 0.76617,-3.66406 0.76109,-1.45029 2.18889,-1.75481 z m -2.60636,9.60472 8.390784,-1.78957 0.0111,4.19181 -8.469024,1.80625 z m 22.955284,-13.84562 -0.11887,20.76503 q 0.003,1.05607 -0.29082,1.6142 -0.27467,0.55396 -0.90056,0.68744 l -1.44736,0.30869 q -0.58676,0.12515 -0.8793,-0.30783 -0.29509,-0.46547 -0.60124,-1.32487 l -3.29278,-9.00706 q -0.27384,-0.70118 -0.50175,-1.57727 -0.22791,-0.87609 -0.41926,-1.793 l -0.19559,0.0417 q 0.0961,0.97026 0.13353,1.95302 0.0544,0.94612 0.0553,1.96971 l -0.0883,11.28035 -3.40325,0.72584 0.11887,-20.76503 q -0.003,-1.05607 0.27126,-1.61003 0.29423,-0.55812 0.92011,-0.69161 l 1.44736,-0.30869 q 0.56721,-0.12097 0.8623,0.34449 0.29509,0.46546 0.59869,1.29239 l 3.20094,8.59732 q 0.27893,0.76614 0.54596,1.63388 0.28659,0.86358 0.52981,1.93456 l 0.21515,-0.0459 q -0.12077,-1.03104 -0.1871,-1.87554 -0.0493,-0.88116 -0.0425,-1.8073 l 0.0858,-11.31284 z m 7.56337,-1.94334 q 2.17103,-0.46304 3.56313,0.29686 1.41165,0.75573 2.08263,3.22159 0.69054,2.4617 0.65656,7.09244 -0.0255,3.47305 -0.3384,5.81852 -0.29592,2.30881 -0.98132,3.70994 -0.66839,1.36447 -1.8011,2.13445 -1.13527,0.7375 -2.81733,1.09625 -1.60383,0.34206 -3.01973,0.54496 -1.39634,0.19873 -2.69743,0.34413 l 1.41586,-4.76034 q 0.69221,-0.0486 1.77306,-0.21303 1.09785,-0.20112 2.13447,-0.42221 0.64544,-0.13766 1.114,-0.50179 0.46601,-0.39661 0.75684,-1.25124 0.29082,-0.85462 0.43283,-2.33801 0.142,-1.48338 0.13943,-3.79458 0.0127,-2.11632 -0.0723,-3.4522 -0.085,-1.33589 -0.31977,-2.0454 -0.23471,-0.70951 -0.66586,-0.88176 -0.4337,-0.20473 -1.11826,-0.0587 -0.665,0.14183 -1.33001,0.28366 -0.64544,0.13766 -1.25177,0.26697 -0.60632,0.12932 -1.13442,0.24195 l -1.73737,-3.88968 q 0.73558,-0.25596 1.59107,-0.50446 0.85294,-0.281 1.76965,-0.50953 0.93628,-0.23272 1.85555,-0.42878 z m -1.55876,0.6627 -0.13671,22.81638 -3.65752,0.78006 0.13671,-22.81638 z m 12.66651,-2.80057 q 1.15398,-0.24612 2.33007,-0.46393 1.17353,-0.25029 2.27649,-0.38644 1.1004,-0.16865 2.01542,-0.16565 l -0.0714,4.40755 -4.85061,1.03452 q -0.5281,0.11263 -0.75685,0.49167 -0.20919,0.37487 -0.22109,1.23605 l -0.0569,10.415 q -0.002,0.72709 0.22367,1.07515 0.22365,0.31557 0.71262,0.21128 l 4.8115,-1.02618 0.28576,4.39742 q -0.90396,0.39095 -1.9967,0.65703 -1.07064,0.29439 -2.20506,0.53634 -1.11231,0.27025 -2.12937,0.48716 -1.62339,0.34624 -2.51121,-1.08264 -0.86826,-1.43304 -0.87168,-4.00826 l 0.0603,-12.39721 q 0.0246,-2.21793 0.76617,-3.66405 0.76108,-1.4503 2.18888,-1.75482 z m -2.60635,9.60472 8.39077,-1.78957 0.0111,4.19181 -8.46901,1.80625 z m 16.37753,-12.77298 q 1.7603,-0.37543 2.98487,0.0239 1.24157,0.36267 1.87002,1.78081 0.64801,1.41397 0.64208,4.12328 -0.0102,1.38922 -0.23639,2.56031 -0.22619,1.17109 -0.79594,2.01916 -0.5502,0.84389 -1.61063,1.26821 l -0.004,0.19905 q 0.35972,0.0224 0.73984,0.30456 0.39969,0.27803 0.7322,0.96669 0.32995,0.65618 0.5077,1.90624 l 1.12257,6.69582 -3.77487,0.8051 -1.00777,-6.75333 q -0.11821,-0.99857 -0.35633,-1.24501 -0.21855,-0.25061 -0.70752,-0.14632 -1.44991,0.2762 -2.36918,0.47226 -0.91927,0.19606 -1.54771,0.29706 -0.62843,0.10101 -1.20075,0.15701 l -0.0409,-4.31755 5.12444,-1.09293 q 0.68456,-0.146 1.05788,-0.4568 0.37077,-0.34327 0.51533,-1.03461 0.16411,-0.6955 0.18962,-1.88984 0.002,-0.9911 -0.13949,-1.52242 -0.1216,-0.53549 -0.46942,-0.65946 -0.3308,-0.16062 -0.91757,-0.0355 -2.01456,0.42966 -3.35903,0.78245 -1.32745,0.31615 -1.79176,0.48122 l -0.39292,-4.24246 q 0.82827,-0.34178 1.56641,-0.56526 0.75769,-0.22765 1.61829,-0.41119 0.85804,-0.21604 2.05113,-0.4705 z m -1.65655,0.68356 -0.13671,22.81638 -3.57928,0.76338 0.13671,-22.81638 z m 13.83154,-3.41231 q 1.09785,-0.20113 2.32836,-0.23239 1.25007,-0.0354 2.3913,0.31562 l -0.004,3.99692 q -0.60888,0.0968 -1.37168,0.25953 -0.76535,0.1302 -1.56726,0.30123 -0.80447,0.13855 -1.60638,0.30958 -0.41074,0.0876 -0.71858,0.21931 -0.29084,0.0951 -0.49323,0.30334 -0.18538,0.17164 -0.27977,0.489 -0.0944,0.31735 -0.11479,0.81708 0.0136,0.42642 0.0978,0.73872 0.0842,0.31229 0.31975,0.52625 0.25512,0.20979 0.71348,0.4753 l 2.48485,1.25339 q 1.15908,0.57842 1.78072,1.40356 0.6412,0.82097 0.89463,2.02187 0.27299,1.19672 0.28576,2.87827 0.003,2.57522 -0.47363,4.09704 -0.4575,1.51764 -1.54854,2.31176 -1.09104,0.79412 -2.9687,1.19458 -0.80191,0.17103 -2.16934,0.2315 -1.36487,0.093 -2.91938,-0.20298 l 0.0178,-4.33007 q 1.13696,-0.20947 2.04178,-0.33639 0.92182,-0.16358 1.55026,-0.26458 0.62588,-0.13349 0.8997,-0.19189 0.72368,-0.15435 1.12422,-0.37187 0.42009,-0.2217 0.59016,-0.58822 0.18708,-0.40317 0.19983,-1.00034 0.0179,-0.53221 -0.0638,-0.81202 -0.0816,-0.27982 -0.29509,-0.46547 -0.21345,-0.18565 -0.58592,-0.37041 l -2.67364,-1.37824 q -1.14463,-0.64755 -1.79093,-1.53349 -0.62675,-0.8901 -0.87762,-2.05852 -0.25343,-1.20089 -0.2679,-2.65091 -0.008,-1.8806 0.28825,-3.16582 0.31634,-1.28939 0.93031,-2.08084 0.63098,-0.8281 1.58596,-1.329 0.97455,-0.50507 2.26543,-0.78039 z"
       id="path25"
       style="font-style:italic;font-weight:800;font-size:25.4152px;font-family:'Exo 2';-inkscape-font-specification:'Exo 2 Ultra-Bold Italic';fill:#ffb159;fill-opacity:1;stroke:#d6d6d6;stroke-width:0"
       aria-label="PRETENDERS" /><image
       width="97.082253"
       height="97.082253"
       preserveAspectRatio="none"
       xlink:href="file:///C:/Users/oxenr/Desktop/logotest.png"
       id="image1"
       x="193.4859"
       y="103.85077" /><path
       id="path207"
       style="font-size:6.35px;font-family:anton;-inkscape-font-specification:anton;fill:#161302;fill-opacity:1;stroke:#d6d6d6;stroke-width:0"
       d="m 143.64763,160.27652 c -3.29824,0.68401 -6.59645,1.368 -9.89453,2.05273 0.12876,0.72397 0.14665,0.89943 -0.45118,0.375 -1.12757,-0.47912 -2.76934,0.28634 -2.68102,1.63711 0.10489,1.19265 0.40914,2.37468 0.70107,3.53444 0.23198,1.02596 1.43636,1.64017 2.37448,1.11166 0.33968,-0.1612 0.80903,-0.0993 1.2546,-0.25268 3.52845,-0.73468 7.07025,-1.46795 10.60673,-2.2024 -0.14349,-0.69187 -0.28705,-1.38373 -0.42773,-2.07617 -0.37393,0.15415 -1.74281,0.29566 -0.77043,-0.0382 0.8511,0.0899 0.51925,-0.59271 0.40681,-1.13492 -0.12055,-0.53984 -0.074,-1.3332 -0.83001,-0.90427 -1.01642,0.14289 0.65169,-0.009 0.6362,-0.24125 -0.13598,-0.65599 -0.27214,-1.31195 -0.40546,-1.96849 -0.17318,0.0358 -0.34636,0.0716 -0.51953,0.10742 z m -15.67578,3.22656 c -0.66667,0.007 -1.3645,0.42479 -1.67774,0.92383 -0.83858,-0.71926 -1.96847,-0.0256 -2.90253,0.05 -2.05834,0.43236 -4.11816,0.85703 -6.17755,1.28401 0.15692,0.42382 -0.64585,-0.0525 -0.9026,0.18827 -1.53971,0.31903 -3.07933,0.63844 -4.61888,0.95822 0.25184,0.59324 -0.64201,-0.0619 -0.9596,0.20092 -1.66652,0.34406 -3.32008,0.68602 -4.98376,1.03345 0.2157,0.50248 -0.47779,-0.005 -0.75586,0.13477 -1.09446,-0.0332 -2.06221,0.97816 -1.80991,2.08139 0.0479,0.65347 0.43237,1.25637 0.98569,1.60025 -0.85954,-0.09 -0.55754,0.5808 -0.43268,1.13823 0.10676,0.9615 0.90052,1.90977 1.9444,1.73677 0.65628,-0.0401 1.38891,-0.33124 1.63867,-0.99023 0.75145,0.67683 2.05396,0.45175 2.69336,-0.27344 0.0534,0.67737 1.01066,-0.0259 1.46705,0.0353 0.87976,0.0892 0.632,-0.56098 0.47833,-1.14991 -0.0204,-0.48468 -0.53634,-1.21413 0.21282,-1.27018 0.56984,-0.65998 0.41319,0.51663 0.59592,0.89947 0.19122,0.46361 -0.0103,1.52514 0.76737,1.09467 4.74873,-0.98651 9.4963,-1.97188 14.24023,-2.95508 -0.28219,-0.62385 0.47368,0.003 0.79492,-0.14453 1.06293,0.0201 2.02887,-0.90693 1.875,-1.99804 -0.22092,-1.20579 -0.39623,-2.44613 -0.79485,-3.60626 -0.27542,-0.65486 -0.97705,-1.04451 -1.6778,-0.97187 z m -4.66602,3.1582 c -0.49439,0.11145 -0.57322,0.0988 0,0 z m -8.625,1.78907 c -0.49439,0.11144 -0.57322,0.0987 0,0 z m 9.08789,0.43945 c -0.94549,0.38695 -0.17655,-0.57182 0,0 z m -22.1875,0.11719 c -0.88476,0.18359 -1.769538,0.36714 -2.654295,0.55078 0.196617,0.51088 -0.68182,-0.0427 -0.994141,0.20508 -6.261773,1.29961 -12.504196,2.59564 -18.763672,3.89453 0.668166,2.07978 1.337599,4.15916 2.007813,6.23828 6.126671,-1.29128 12.266796,-2.5149 18.384765,-3.8418 0.60559,-0.43853 0.51819,-0.16732 1.08111,-0.20042 0.95081,-0.19696 1.9016,-0.39397 2.85248,-0.59059 -0.14677,-0.69159 -0.28963,-1.384 -0.43359,-2.07617 -0.37364,0.15467 -1.73842,0.29538 -0.76652,-0.0382 0.8511,0.0899 0.51925,-0.59271 0.40681,-1.13492 -0.12055,-0.53985 -0.074,-1.3332 -0.83001,-0.90427 -1.01836,0.14298 0.65272,-0.009 0.63779,-0.24118 -0.13894,-0.65577 -0.27446,-1.31227 -0.41096,-1.96856 -0.17253,0.0358 -0.34505,0.0716 -0.51758,0.10742 z m 13.5625,1.67187 c -0.94384,0.38619 -0.17933,-0.56674 0,0 z m -37.537108,3.30274 c -0.76107,0.15819 -1.522059,0.31677 -2.283203,0.47461 0.237691,2.16847 0.47376,4.33712 0.708984,6.50586 1.325361,-0.27552 2.650518,-0.55201 3.976563,-0.82422 -0.644159,-2.08455 -1.286197,-4.16976 -1.931641,-6.25391 -0.156901,0.0325 -0.313802,0.0651 -0.470703,0.0977 z" /><path
       d="m 76.495018,180.20413 -0.592831,-5.45028 1.812427,-0.37615 1.615927,5.23794 -1.010952,0.20982 -0.254833,-0.84644 -0.64361,0.13358 0.112153,0.87605 z m 0.824969,-1.96037 0.485743,-0.10082 -0.79768,-2.6686 -0.04857,0.0101 z m 4.214611,0.91445 -1.682716,-5.22409 1.044347,-0.21674 0.994495,3.31175 -0.39946,-3.43525 0.995772,-0.20666 0.985388,3.31365 -0.41464,-3.43211 1.05649,-0.21926 0.526041,5.46414 -1.281146,0.26589 -0.800831,-2.51595 0.278658,2.62432 z m 3.77665,-0.78382 -0.592832,-5.45028 1.812427,-0.37615 1.615927,5.23794 -1.010952,0.20982 -0.254832,-0.84644 -0.643609,0.13358 0.112153,0.87605 z m 0.824969,-1.96037 0.485742,-0.10082 -0.79768,-2.6686 -0.04857,0.0101 z m 2.33843,1.30383 -1.108933,-5.34316 1.098993,-0.22809 1.02297,2.45719 -0.531155,-2.55926 1.032203,-0.21423 1.108932,5.34317 -1.044347,0.21675 -1.088782,-2.56069 0.554465,2.67158 z m 3.096609,-0.64267 -1.108933,-5.34317 1.098993,-0.22809 1.022969,2.45719 -0.531155,-2.55926 1.032203,-0.21423 1.108933,5.34317 -1.044346,0.21675 -1.088782,-2.56069 0.554465,2.67158 z m 2.950887,-0.61244 -0.592832,-5.45028 1.812428,-0.37615 1.615927,5.23794 -1.010952,0.20982 -0.254833,-0.84644 -0.643609,0.13358 0.112154,0.87605 z m 0.82497,-1.96037 0.485742,-0.10082 -0.797681,-2.6686 -0.04857,0.0101 z m 2.338428,1.30384 -1.108933,-5.34317 1.448121,-0.30055 q 0.58289,-0.12097 0.906241,0.10959 0.325755,0.22689 0.461222,0.87961 l 0.04852,0.23375 q 0.07813,0.37646 -0.01,0.63857 -0.08506,0.2615 -0.346208,0.39169 0.38017,0.0161 0.571547,0.32788 0.193781,0.30812 0.293963,0.79082 0.107746,0.51914 0.09124,0.9279 -0.0165,0.40875 -0.226775,0.67722 -0.21028,0.26848 -0.680843,0.36614 z m 0.353155,-3.54712 0.218584,-0.0454 q 0.148759,-0.0309 0.167318,-0.15505 0.01856,-0.12419 -0.01483,-0.28509 l -0.111524,-0.53736 q -0.05356,-0.25805 -0.281249,-0.21079 l -0.224655,0.0466 z m 0.602125,2.36719 q 0.415917,-0.0863 0.334009,-0.48098 l -0.138617,-0.6679 q -0.04726,-0.22769 -0.144171,-0.34374 -0.09451,-0.11972 -0.282739,-0.0807 l -0.197333,0.041 0.321339,1.5483 q 0.06801,-0.008 0.107476,-0.0162 z m 2.019889,0.56245 -1.108927,-5.34317 2.137267,-0.44357 0.21423,1.0322 -1.05042,0.21801 0.21611,1.04131 1.00792,-0.20919 0.20855,1.00489 -1.00791,0.20919 0.25392,1.22345 1.12024,-0.23249 0.21612,1.04131 z m 5.29557,-1.0484 q -0.73165,0.15185 -1.1321,-0.14504 -0.39741,-0.29751 -0.56249,-1.09291 l -0.10837,-0.52218 1.05649,-0.21926 0.13861,0.66789 q 0.0384,0.18519 0.11514,0.2801 0.0791,0.0913 0.21875,0.0623 0.14572,-0.0303 0.18273,-0.12658 0.04,-0.097 -2.9e-4,-0.29128 -0.051,-0.2459 -0.13363,-0.39976 -0.0832,-0.15689 -0.23554,-0.28045 -0.1499,-0.12722 -0.404,-0.28348 l -0.57418,-0.35583 q -0.64258,-0.39547 -0.77805,-1.04819 -0.14176,-0.68308 0.0996,-1.10684 0.24442,-0.42439 0.84553,-0.54915 0.73469,-0.15248 1.12259,0.17552 0.39094,0.32737 0.55665,1.1258 l -1.08685,0.22557 -0.0762,-0.36734 q -0.0227,-0.10929 -0.099,-0.15678 -0.0733,-0.0481 -0.17957,-0.026 -0.12751,0.0265 -0.17311,0.11191 -0.0432,0.0818 -0.0199,0.19412 0.0233,0.11233 0.11113,0.23027 0.0878,0.11795 0.30221,0.25078 l 0.73915,0.46409 q 0.22174,0.13765 0.41752,0.30285 0.19515,0.16216 0.34345,0.40372 0.14767,0.23851 0.22517,0.61193 0.15626,0.7529 -0.0342,1.23893 -0.18805,0.48236 -0.8772,0.62538 z m 2.83552,-0.58849 q -0.66789,0.13862 -1.06112,-0.16926 -0.39386,-0.31092 -0.54508,-1.03954 l -0.81217,-3.91327 1.03827,-0.21548 0.80335,3.87076 q 0.0277,0.13359 0.0687,0.2549 0.0404,0.11829 0.11141,0.18588 0.071,0.0676 0.19246,0.0424 0.12447,-0.0258 0.16337,-0.11306 0.0383,-0.0903 0.0246,-0.21727 -0.0107,-0.12761 -0.0384,-0.2612 l -0.80335,-3.87076 1.03828,-0.21549 0.81217,3.91327 q 0.15121,0.72861 -0.0864,1.17059 -0.23823,0.43894 -0.90613,0.57756 z m 1.69913,-0.40329 -1.10893,-5.34317 1.41169,-0.29299 q 0.44324,-0.092 0.74224,0.0518 0.30204,0.14315 0.48998,0.48414 0.18794,0.341 0.29253,0.84496 0.10081,0.48574 0.0817,0.86654 -0.0198,0.37777 -0.22168,0.62551 -0.19888,0.24711 -0.64212,0.3391 l -0.43414,0.0901 0.43917,2.11601 z m 0.41215,-3.29336 0.0607,-0.0126 q 0.29752,-0.0617 0.32965,-0.24258 0.0321,-0.18083 -0.0353,-0.50568 -0.063,-0.30358 -0.16381,-0.45366 -0.0984,-0.15374 -0.34128,-0.10334 l -0.1184,0.0246 z m 2.52356,2.68407 -1.10894,-5.34316 2.13727,-0.44358 0.21423,1.03221 -1.05042,0.218 0.21612,1.04131 1.00791,-0.20918 0.20856,1.00488 -1.00792,0.20919 0.25392,1.22346 1.12025,-0.2325 0.21611,1.04131 z m 2.55925,-0.53115 -1.10893,-5.34317 1.63938,-0.34024 q 0.40985,-0.0851 0.65839,0.0597 0.24791,0.14172 0.38767,0.46421 0.14217,0.31883 0.23605,0.77117 0.0907,0.43718 0.0326,0.72158 -0.0551,0.28377 -0.34094,0.44759 0.26269,-7e-4 0.40446,0.17889 0.14418,0.1759 0.2097,0.49163 l 0.41963,2.02191 -1.05345,0.21863 -0.43412,-2.09172 q -0.0485,-0.23376 -0.15701,-0.26824 -0.10608,-0.0381 -0.31859,0.006 l 0.50595,2.43782 z m 0.38873,-3.58933 0.25805,-0.0536 q 0.22162,-0.046 0.12144,-0.52871 -0.0649,-0.3127 -0.13364,-0.39977 -0.0687,-0.0871 -0.20231,-0.0593 l -0.24894,0.0517 z m 2.5743,2.97438 -1.10893,-5.34317 1.06256,-0.22053 0.39632,1.90958 0.50396,-0.10459 -0.39632,-1.90958 1.06256,-0.22053 1.10894,5.34317 -1.06257,0.22053 -0.50279,-2.42264 -0.50396,0.1046 0.5028,2.42263 z m 3.10268,-0.64394 -1.10893,-5.34317 2.13727,-0.44357 0.21422,1.0322 -1.05041,0.21801 0.21611,1.04131 1.00792,-0.20919 0.20855,1.00489 -1.00791,0.20918 0.25392,1.22346 1.12024,-0.2325 0.21612,1.04131 z m 2.55926,-0.53116 -1.10893,-5.34316 1.63938,-0.34024 q 0.40985,-0.0851 0.65839,0.0597 0.24791,0.14172 0.38767,0.46421 0.14217,0.31883 0.23605,0.77117 0.0907,0.43717 0.0326,0.72157 -0.0551,0.28377 -0.34094,0.44759 0.26269,-6.9e-4 0.40446,0.17889 0.14418,0.17591 0.2097,0.49164 l 0.41963,2.0219 -1.05345,0.21864 -0.43412,-2.09173 q -0.0485,-0.23376 -0.15701,-0.26824 -0.10608,-0.0381 -0.31859,0.006 l 0.50595,2.43782 z m 0.38873,-3.58932 0.25805,-0.0536 q 0.22162,-0.046 0.12144,-0.52871 -0.0649,-0.31269 -0.13364,-0.39976 -0.0687,-0.0871 -0.20231,-0.0593 l -0.24894,0.0517 z m 3.85945,2.75831 q -0.64057,0.13295 -1.06061,-0.18203 -0.41763,-0.31867 -0.56948,-1.05031 l -0.52674,-2.53801 q -0.1424,-0.68611 0.11783,-1.11062 0.26326,-0.42514 0.90991,-0.55934 0.64664,-0.13421 1.05431,0.15168 0.4107,0.28527 0.5531,0.97137 l 0.52674,2.53801 q 0.15185,0.73165 -0.10752,1.19082 -0.25696,0.45549 -0.89754,0.58843 z m -0.19503,-0.98551 q 0.24287,-0.0504 0.14521,-0.52097 l -0.54124,-2.60783 q -0.0819,-0.39467 -0.31871,-0.34552 -0.26716,0.0554 -0.18336,0.45922 l 0.54061,2.60479 q 0.0517,0.24895 0.13506,0.34564 0.0828,0.0936 0.22243,0.0647 z m 4.50296,0.0914 q -1.14453,0.23754 -1.48477,-1.40184 l -0.47822,-2.30425 q -0.31063,-1.49669 1.00087,-1.76888 0.54039,-0.11216 0.87417,0.0466 0.33314,0.15569 0.52875,0.54892 0.19562,0.39324 0.31974,0.9913 l -1.04435,0.21675 -0.0983,-0.4736 q -0.0359,-0.17304 -0.10843,-0.27832 -0.0701,-0.10896 -0.21887,-0.0781 -0.18519,0.0384 -0.22007,0.17552 -0.0319,0.13644 -9.8e-4,0.2852 l 0.53746,2.58961 q 0.0447,0.21555 0.12773,0.34083 0.0854,0.1216 0.24935,0.0876 0.17001,-0.0353 0.19693,-0.1802 0.0293,-0.14858 -0.0167,-0.3702 l -0.15815,-0.76201 -0.28537,0.0592 -0.19155,-0.92291 1.30544,-0.27093 0.64582,3.11179 -0.42806,0.0888 -0.2754,-0.4115 q -0.17597,0.55584 -0.77708,0.6806 z m 1.75682,-0.41527 -0.59284,-5.45028 1.81243,-0.37616 1.61593,5.23795 -1.01095,0.20981 -0.25485,-0.84643 -0.6436,0.13357 0.11215,0.87605 z m 0.82497,-1.96038 0.48574,-0.10081 -0.79768,-2.6686 -0.0486,0.0101 z m 2.33842,1.30384 -1.10893,-5.34317 1.62723,-0.33772 1.12539,3.16426 -0.22979,-3.35013 1.64241,-0.34087 1.10893,5.34317 -0.97755,0.20288 -0.79893,-3.84951 0.18568,3.97679 -0.95934,0.1991 -1.44861,-3.71467 0.79893,3.84951 z m 4.63884,-0.96275 -1.10893,-5.34317 2.13727,-0.44358 0.21423,1.03221 -1.05043,0.218 0.21612,1.04131 1.00792,-0.20918 0.20856,1.00488 -1.00792,0.20919 0.25391,1.22346 1.12025,-0.2325 0.21612,1.04131 z"
       id="text207"
       style="font-size:6.35px;font-family:anton;-inkscape-font-specification:anton;fill:#fdf5c6;stroke:#d6d6d6;stroke-width:0"
       aria-label="A WANNABE SUPERHERO GAME" /></g><g
     inkscape:groupmode="layer"
     id="layer2"
     inkscape:label="Middle" /><g
     inkscape:groupmode="layer"
     id="layer3"
     inkscape:label="Top"><path
       d="m -225.11049,193.8295 q 1.95589,-0.41714 3.14644,0.0555 1.18799,0.44015 1.71184,2.04572 0.54342,1.6014 0.52134,4.61138 -0.008,2.94085 -0.45237,4.6209 -0.44474,1.68005 -1.45244,2.52245 -1.01026,0.80991 -2.73144,1.177 -0.93883,0.20023 -1.87086,0.23389 -0.93202,0.0336 -1.73224,-0.0268 -0.80277,-0.093 -1.37083,-0.23603 -0.57061,-0.17553 -0.80362,-0.35701 l -0.10207,-2.81838 q 1.27133,-0.27114 2.62089,-0.55897 1.34957,-0.28784 2.60134,-0.55481 0.64544,-0.13766 0.97965,-0.44011 0.35375,-0.30662 0.49576,-1.03044 0.15901,-0.76046 0.1641,-2.21464 0.011,-1.12521 -0.11568,-1.72566 -0.12671,-0.60044 -0.46006,-0.79355 -0.3138,-0.19727 -0.90057,-0.0721 -1.91677,0.40881 -3.26124,0.7616 -1.34701,0.32032 -1.81132,0.4854 l -0.39296,-4.24246 q 0.82829,-0.34178 1.54686,-0.56109 0.73814,-0.22348 1.59873,-0.40702 0.85804,-0.21603 2.07069,-0.47467 z m -1.55876,0.6627 -0.13672,22.81638 -3.65751,0.78007 0.13671,-22.81638 z m 13.84176,-3.28239 q 1.76031,-0.37543 2.98487,0.0239 1.24158,0.36267 1.87003,1.78081 0.64801,1.41397 0.64208,4.12328 -0.0102,1.38922 -0.23639,2.56031 -0.22619,1.17109 -0.79595,2.01916 -0.55019,0.84389 -1.61062,1.26821 l -0.004,0.19905 q 0.35972,0.0224 0.73984,0.30456 0.39969,0.27803 0.7322,0.96669 0.32995,0.65617 0.50769,1.90624 l 1.12258,6.69582 -3.77487,0.8051 -1.00778,-6.75334 q -0.11819,-0.99856 -0.35632,-1.245 -0.21855,-0.25061 -0.70753,-0.14632 -1.4499,0.2762 -2.36918,0.47226 -0.91926,0.19606 -1.5477,0.29706 -0.62843,0.10101 -1.20074,0.15701 l -0.0409,-4.31756 5.12444,-1.09292 q 0.68456,-0.14601 1.05788,-0.4568 0.37077,-0.34328 0.51533,-1.03461 0.16412,-0.6955 0.18962,-1.88984 0.002,-0.99111 -0.13947,-1.52243 -0.12161,-0.53548 -0.46942,-0.65945 -0.3308,-0.16063 -0.91757,-0.0355 -2.01456,0.42966 -3.35903,0.78245 -1.32745,0.31615 -1.79176,0.48123 l -0.39296,-4.24246 q 0.82828,-0.34178 1.56642,-0.56526 0.75769,-0.22765 1.61828,-0.41119 0.85804,-0.21604 2.05113,-0.47049 z m -1.65654,0.68356 -0.13672,22.81638 -3.57928,0.76338 0.13671,-22.81638 z m 12.07975,-2.67542 q 1.15397,-0.24612 2.33006,-0.46393 1.17353,-0.25029 2.27648,-0.38645 1.10041,-0.16864 2.01542,-0.16564 l -0.0714,4.40755 -4.85061,1.03452 q -0.52809,0.11263 -0.75684,0.49167 -0.20919,0.37486 -0.22109,1.23605 l -0.0569,10.415 q -0.002,0.72708 0.22367,1.07514 0.22365,0.31558 0.71262,0.21129 l 4.8115,-1.02618 0.28572,4.39743 q -0.90395,0.39094 -1.9967,0.65702 -1.07064,0.2944 -2.20506,0.53634 -1.11231,0.27025 -2.12937,0.48717 -1.62339,0.34623 -2.51121,-1.08264 -0.86826,-1.43304 -0.87168,-4.00826 l 0.0603,-12.39722 q 0.0246,-2.21792 0.76617,-3.66405 0.76109,-1.45029 2.18889,-1.75481 z m -2.60636,9.60472 8.39077,-1.78957 0.0111,4.19181 -8.46901,1.80625 z m 17.73305,-12.73183 -0.13672,22.81638 -3.65751,0.78007 0.13671,-22.81638 z m 3.87266,-0.82595 -0.0263,4.72818 -11.40284,2.43197 0.0263,-4.72818 z m 4.23663,-1.00266 q 1.15397,-0.24612 2.33006,-0.46393 1.17353,-0.25029 2.27649,-0.38645 1.1004,-0.16864 2.01542,-0.16564 l -0.0714,4.40755 -4.85061,1.03452 q -0.52809,0.11263 -0.75685,0.49167 -0.20919,0.37486 -0.22109,1.23605 l -0.0569,10.415 q -0.002,0.72708 0.22367,1.07514 0.22365,0.31558 0.71263,0.21129 l 4.81149,-1.02618 0.28576,4.39742 q -0.90396,0.39094 -1.9967,0.65703 -1.07064,0.29439 -2.20506,0.53633 -1.11231,0.27025 -2.12937,0.48717 -1.62339,0.34623 -2.51121,-1.08264 -0.86826,-1.43304 -0.87168,-4.00826 l 0.0603,-12.39721 q 0.0247,-2.21793 0.76617,-3.66406 0.76108,-1.45029 2.18888,-1.75481 z m -2.60636,9.60472 8.39077,-1.78957 0.0111,4.19181 -8.46901,1.80625 z m 22.95527,-13.84562 -0.11887,20.76503 q 0.003,1.05607 -0.29081,1.6142 -0.27468,0.55396 -0.90056,0.68744 l -1.44736,0.30869 q -0.58677,0.12515 -0.87931,-0.30783 -0.29508,-0.46547 -0.60123,-1.32487 l -3.29279,-9.00706 q -0.27383,-0.70118 -0.50174,-1.57727 -0.22791,-0.87609 -0.41926,-1.793 l -0.19559,0.0417 q 0.0961,0.97026 0.13353,1.95302 0.0544,0.94612 0.0553,1.96971 l -0.0883,11.28035 -3.40326,0.72584 0.11888,-20.76503 q -0.003,-1.05607 0.27126,-1.61003 0.29423,-0.55812 0.92011,-0.69161 l 1.44736,-0.30869 q 0.56721,-0.12097 0.8623,0.34449 0.29509,0.46546 0.59868,1.29239 l 3.20094,8.59732 q 0.27894,0.76614 0.54597,1.63388 0.28659,0.86358 0.52981,1.93456 l 0.21514,-0.0459 q -0.12076,-1.03104 -0.1871,-1.87554 -0.0493,-0.88116 -0.0425,-1.8073 l 0.0858,-11.31284 z m 7.56337,-1.94334 q 2.17104,-0.46304 3.56313,0.29686 1.41166,0.75573 2.08264,3.22159 0.69053,2.4617 0.65656,7.09244 -0.0255,3.47305 -0.3384,5.81852 -0.29592,2.30881 -0.98132,3.70994 -0.66839,1.36447 -1.80111,2.13445 -1.13526,0.7375 -2.81733,1.09625 -1.60383,0.34206 -3.01972,0.54496 -1.39634,0.19873 -2.69743,0.34413 l 1.41585,-4.76034 q 0.69222,-0.0486 1.77306,-0.21303 1.09785,-0.20112 2.13447,-0.42221 0.64545,-0.13766 1.11401,-0.50179 0.46601,-0.39661 0.75684,-1.25124 0.29082,-0.85462 0.43282,-2.33801 0.142,-1.48338 0.13943,-3.79458 0.0127,-2.11632 -0.0723,-3.4522 -0.085,-1.33589 -0.31976,-2.0454 -0.23471,-0.70951 -0.66586,-0.88176 -0.4337,-0.20473 -1.11827,-0.0587 -0.665,0.14183 -1.33,0.28366 -0.64545,0.13766 -1.25177,0.26697 -0.60633,0.12932 -1.13442,0.24195 l -1.73738,-3.88968 q 0.73559,-0.25596 1.59108,-0.50446 0.85293,-0.281 1.76965,-0.50953 0.93628,-0.23272 1.85555,-0.42878 z m -1.55876,0.6627 -0.13671,22.81638 -3.65751,0.78006 0.13671,-22.81638 z m 12.66652,-2.80057 q 1.15398,-0.24612 2.33006,-0.46393 1.17354,-0.25029 2.27649,-0.38644 1.1004,-0.16865 2.01542,-0.16565 l -0.0714,4.40755 -4.85061,1.03452 q -0.52809,0.11263 -0.75684,0.49167 -0.20919,0.37487 -0.22109,1.23605 l -0.0569,10.415 q -0.002,0.72709 0.22366,1.07515 0.22366,0.31557 0.71263,0.21128 l 4.81149,-1.02618 0.28577,4.39742 q -0.90396,0.39095 -1.99671,0.65703 -1.07064,0.29439 -2.20505,0.53634 -1.11231,0.27025 -2.12937,0.48716 -1.62339,0.34624 -2.51121,-1.08264 -0.86826,-1.43304 -0.87169,-4.00826 l 0.0603,-12.39721 q 0.0246,-2.21793 0.76617,-3.66405 0.76109,-1.4503 2.18889,-1.75482 z m -2.60636,9.60472 8.39077,-1.78957 0.0111,4.19181 -8.469,1.80625 z m 16.37754,-12.77298 q 1.7603,-0.37543 2.98486,0.0239 1.24157,0.36267 1.87003,1.78081 0.648,1.41397 0.64208,4.12328 -0.0102,1.38922 -0.23639,2.56031 -0.22619,1.17109 -0.79595,2.01916 -0.55019,0.84389 -1.61062,1.26821 l -0.004,0.19905 q 0.35971,0.0224 0.73984,0.30456 0.39968,0.27803 0.73219,0.96669 0.32996,0.65618 0.5077,1.90624 l 1.12257,6.69582 -3.77487,0.8051 -1.00777,-6.75333 q -0.11821,-0.99857 -0.35632,-1.24501 -0.21855,-0.25061 -0.70753,-0.14632 -1.44991,0.2762 -2.36918,0.47226 -0.91927,0.19606 -1.5477,0.29706 -0.62844,0.10101 -1.20075,0.15701 l -0.0409,-4.31755 5.12443,-1.09293 q 0.68457,-0.146 1.05788,-0.4568 0.37077,-0.34327 0.51533,-1.03461 0.16412,-0.6955 0.18962,-1.88984 0.002,-0.9911 -0.13948,-1.52242 -0.12161,-0.53549 -0.46942,-0.65946 -0.3308,-0.16062 -0.91757,-0.0355 -2.01457,0.42966 -3.35903,0.78245 -1.32746,0.31615 -1.79177,0.48122 l -0.39292,-4.24246 q 0.82828,-0.34178 1.56641,-0.56526 0.7577,-0.22765 1.61829,-0.41119 0.85804,-0.21604 2.05114,-0.4705 z m -1.65655,0.68356 -0.13672,22.81638 -3.57928,0.76338 0.13671,-22.81638 z m 13.83153,-3.41231 q 1.09785,-0.20113 2.32837,-0.23239 1.25007,-0.0354 2.39129,0.31562 l -0.004,3.99692 q -0.60887,0.0968 -1.37167,0.25953 -0.76535,0.1302 -1.56727,0.30123 -0.80446,0.13855 -1.60638,0.30958 -0.41074,0.0876 -0.71858,0.21931 -0.29083,0.0951 -0.49322,0.30334 -0.18538,0.17164 -0.27977,0.489 -0.0944,0.31735 -0.1148,0.81708 0.0136,0.42642 0.0978,0.73872 0.0842,0.31229 0.31975,0.52625 0.25512,0.20979 0.71348,0.4753 l 2.48485,1.25339 q 1.15909,0.57842 1.78073,1.40356 0.6412,0.82097 0.89463,2.02187 0.27298,1.19672 0.28575,2.87827 0.003,2.57522 -0.47362,4.09704 -0.4575,1.51764 -1.54854,2.31176 -1.09105,0.79412 -2.9687,1.19458 -0.80192,0.17103 -2.16934,0.2315 -1.36488,0.093 -2.91939,-0.20298 l 0.0178,-4.33007 q 1.13697,-0.20947 2.04178,-0.33639 0.92182,-0.16358 1.55026,-0.26458 0.62589,-0.13349 0.89971,-0.19189 0.72368,-0.15435 1.12421,-0.37187 0.42009,-0.2217 0.59017,-0.58822 0.18708,-0.40317 0.19983,-1.00034 0.0179,-0.53221 -0.0638,-0.81202 -0.0816,-0.27982 -0.29509,-0.46547 -0.21345,-0.18565 -0.58592,-0.37041 l -2.67364,-1.37824 q -1.14463,-0.64755 -1.79093,-1.53349 -0.62675,-0.8901 -0.87762,-2.05852 -0.25343,-1.20089 -0.2679,-2.65091 -0.008,-1.8806 0.28825,-3.16582 0.31634,-1.28939 0.93031,-2.08084 0.63098,-0.8281 1.58597,-1.329 0.97454,-0.50507 2.26543,-0.78039 z"
       id="path26"
       style="font-style:italic;font-weight:800;font-size:25.4152px;font-family:'Exo 2';-inkscape-font-specification:'Exo 2 Ultra-Bold Italic';fill:#ffdbb1;fill-opacity:1;stroke:#d6d6d6;stroke-width:0"
       aria-label="PRETENDERS" /></g></svg>
